<svg xmlns="http://www.w3.org/2000/svg" width="201.116" height="199.881" viewBox="0 0 201.116 199.881">
  <path id="claveDeFaIcon" d="M113.634,150.41C90.823,176.232,50.507,193.378,25.5,198.686c-1.633-12.809,29.139-14.442,46.643-27.71C115.93,146.684,133.077,76.413,98.886,36.3c-8.931-9.951-28.527-25.465-47.766-21.74-8.165.306-21.484,8.522-25.108,17.1,26.588-7.6,36.794,4.491,38.07,4.644,11.278,7.451,12.911,22.556,8.931,31.436-9.135,23.934-38.274,33.63-51.287,31.946C12.744,97.54,7.794,89.835,5.956,87.028-27.929,9,91.435-32.9,129.148,31.913,157.011,69.983,133.383,131.987,113.634,150.41ZM168.9,56.562c5.358,3.878,18.729-2.6,23.526-8.114,4.491-4.389,9.849-16.687-1.378-20.362-5.716-2.4-21.331,6.481-23.526,11.993C165.687,45.028,166.3,53.143,168.9,56.562ZM199.47,105.45c-.51-14.136-10-10.564-19.8-4.236-5.052,3.011-7.757,4.644-9.645,8.267-2.347,4.491-1.786,9.033-1.123,14.289,0,13.83,10.206,9.084,18.218,4.287C196.765,123.618,201.613,114.993,199.47,105.45Z" transform="translate(0.628 0.594)" stroke="#707070" stroke-width="1"/>
</svg>
