<?xml version="1.0" encoding="utf-8"?>
<!-- Generator: Adobe Illustrator 25.2.1, SVG Export Plug-In . SVG Version: 6.00 Build 0)  -->
<svg version="1.1" id="Capa_2_1_" xmlns="http://www.w3.org/2000/svg" xmlns:xlink="http://www.w3.org/1999/xlink" x="0px" y="0px"
	 viewBox="0 0 391.9 389.3" style="enable-background:new 0 0 391.9 389.3;" xml:space="preserve">
<style type="text/css">
	.st0{fill:#ffffff;}
</style>
<path class="st0" d="M222.7,294.7C178,345.3,99,378.9,50,389.3c-3.2-25.1,57.1-28.3,91.4-54.3c85.8-47.6,119.4-185.3,52.4-263.9
	c-17.5-19.5-55.9-49.9-93.6-42.6C84.2,29.1,58.1,45.2,51,62c52.1-14.9,72.1,8.8,74.6,9.1c22.1,14.6,25.3,44.2,17.5,61.6
	c-17.9,46.9-75,65.9-100.5,62.6C25,191.1,15.3,176,11.7,170.5c-66.4-152.9,167.5-235,241.4-108C307.7,137.1,261.4,258.6,222.7,294.7
	z M331,110.8c10.5,7.6,36.7-5.1,46.1-15.9c8.8-8.6,19.3-32.7-2.7-39.9c-11.2-4.7-41.8,12.7-46.1,23.5
	C324.7,88.2,325.9,104.1,331,110.8z M390.9,206.6c-1-27.7-19.6-20.7-38.8-8.3c-9.9,5.9-15.2,9.1-18.9,16.2c-4.6,8.8-3.5,17.7-2.2,28
	c0,27.1,20,17.8,35.7,8.4C385.6,242.2,395.1,225.3,390.9,206.6z"/>
</svg>
