<svg xmlns="http://www.w3.org/2000/svg" width="35.276" height="41.681" viewBox="0 0 35.276 41.681">
  <g id="Capa_2" data-name="Capa 2" transform="translate(-0.006)">
    <g id="_32" data-name="32">
      <path id="Path_18" data-name="Path 18" d="M22.05,1.31H5.81A1.49,1.49,0,0,0,4.32,2.8V36.21A1.49,1.49,0,0,0,5.81,37.7H29.45a1.46,1.46,0,0,0,1.46-1.49v-26h-4.1a4.77,4.77,0,0,1-4.76-4.76ZM5.81,0H22.7l9.52,9.52v9l3,15.24a2.79,2.79,0,0,1-2.11,3.3l-1,.16A3,3,0,0,1,29.45,39H23.38L9.76,41.62a2.78,2.78,0,0,1-3.29-2.11V39H5.81A2.88,2.88,0,0,1,3,36.21V21.81L.06,6.56A2.79,2.79,0,0,1,2.2,3.29L3,3.11V2.8A2.88,2.88,0,0,1,5.81,0Z" fill-rule="evenodd"/>
    </g>
  </g>
</svg>
