<svg id="searchIcon" xmlns="http://www.w3.org/2000/svg" width="31" height="31.862" viewBox="0 0 31 31.862">
  <g id="Group_1" data-name="Group 1">
    <path id="Path_5" data-name="Path 5" d="M21.583,20.06a12.381,12.381,0,0,0,2-6.781A12,12,0,0,0,11.794,1.1,12,12,0,0,0,0,13.279,12,12,0,0,0,11.794,25.453a11.474,11.474,0,0,0,6.679-2.147l9.4,9.661L31,29.738Zm-9.79,1.974A8.612,8.612,0,0,1,3.331,13.3a8.612,8.612,0,0,1,8.463-8.735A8.612,8.612,0,0,1,20.256,13.3,8.612,8.612,0,0,1,11.794,22.034Z" transform="translate(0 -1.105)"/>
  </g>
</svg>
